<?xml version="1.0" standalone="no"?>
<!DOCTYPE svg PUBLIC "-//W3C//DTD SVG 20010904//EN"
 "http://www.w3.org/TR/2001/REC-SVG-20010904/DTD/svg10.dtd">
<svg version="1.0" xmlns="http://www.w3.org/2000/svg"
 width="1024.000000pt" height="1024.000000pt" viewBox="0 0 1024.000000 1024.000000"
 preserveAspectRatio="xMidYMid meet">

<g transform="translate(0.000000,1024.000000) scale(0.100000,-0.100000)"
fill="#000000" stroke="none">
<path d="M4844 9028 c-9 -15 -6 -189 6 -365 10 -138 26 -186 86 -252 107 -119
243 -132 374 -35 43 31 65 57 85 98 26 54 28 65 38 302 9 209 8 247 -4 255
-21 13 -143 11 -157 -3 -8 -8 -12 -66 -12 -192 0 -296 -17 -346 -117 -346 -39
0 -50 5 -84 39 l-39 39 0 220 c0 187 -2 223 -16 236 -20 20 -149 23 -160 4z"/>
<path d="M4365 8980 c-226 -79 -323 -288 -225 -486 77 -156 242 -252 387 -225
75 15 162 62 216 118 26 26 47 51 47 54 0 4 -32 29 -71 55 -68 46 -72 48 -83
30 -21 -37 -71 -77 -110 -87 -107 -29 -235 58 -256 173 -10 53 9 130 40 163
70 74 218 85 288 22 16 -15 21 -11 66 39 47 53 48 56 30 75 -10 11 -46 33 -80
50 -84 41 -166 47 -249 19z"/>
<path d="M5662 8983 c-12 -23 -48 -221 -62 -336 -13 -103 -22 -158 -46 -250
-15 -60 -15 -70 -2 -83 15 -15 133 -42 330 -75 65 -10 123 -20 130 -21 18 -4
60 123 46 139 -9 11 -106 36 -258 67 -77 15 -76 -16 -9 276 28 118 49 226 47
240 -4 33 -58 60 -120 60 -35 0 -50 -5 -56 -17z"/>
<path d="M6347 8808 c-8 -18 -42 -105 -76 -193 -80 -214 -128 -334 -146 -367
-28 -49 -20 -67 42 -95 79 -36 80 -36 143 122 95 237 165 405 187 448 13 27
22 55 20 61 -6 14 -109 56 -137 56 -10 0 -24 -14 -33 -32z"/>
<path d="M3574 8771 c-67 -31 -81 -45 -65 -64 13 -17 123 -288 118 -293 -2 -2
-53 23 -113 56 -129 71 -255 122 -305 124 -42 1 -89 -27 -89 -53 0 -27 224
-596 254 -643 6 -10 15 -18 21 -18 19 0 125 71 125 83 0 7 -29 84 -64 172 -36
88 -64 161 -63 161 5 4 274 -118 354 -160 l91 -49 36 22 c20 13 36 27 36 33 0
32 -52 177 -129 358 -48 113 -94 221 -101 240 -15 38 -29 60 -39 60 -3 -1 -34
-14 -67 -29z"/>
<path d="M6875 8629 c-4 -5 -33 -31 -65 -57 -71 -58 -257 -222 -365 -322 -44
-41 -93 -84 -109 -95 -22 -16 -27 -26 -22 -41 7 -22 92 -74 120 -74 8 0 38 20
66 45 28 25 53 45 57 45 3 0 40 -19 82 -43 42 -24 88 -48 104 -55 31 -13 33
-23 12 -82 -8 -23 -15 -46 -15 -50 0 -11 119 -90 135 -90 24 0 50 93 99 350
19 102 39 223 45 270 6 47 14 95 16 107 5 20 -5 28 -74 63 -49 24 -82 36 -86
29z m-54 -339 c-12 -51 -23 -96 -26 -99 -9 -8 -115 50 -115 63 1 6 21 27 46
46 25 19 60 53 77 75 41 50 44 35 18 -85z"/>
<path d="M2645 8255 c-27 -19 -53 -36 -58 -38 -16 -5 158 -702 183 -732 10
-12 22 -8 72 26 32 22 62 48 65 57 4 8 -1 37 -11 64 -21 60 -23 58 100 143 88
61 124 77 124 56 0 -5 18 -24 41 -41 33 -27 44 -31 62 -23 31 15 117 93 117
106 0 7 -15 21 -33 33 -236 153 -484 314 -530 345 -32 22 -64 39 -70 38 -7 0
-34 -16 -62 -34z m176 -223 c13 -10 48 -31 77 -47 28 -15 52 -31 52 -35 0 -9
-121 -103 -126 -98 -2 2 -10 38 -19 79 -8 41 -17 84 -20 97 -6 27 4 28 36 4z"/>
<path d="M7517 8218 c-2 -8 -29 -26 -58 -42 -30 -16 -83 -50 -119 -76 -36 -25
-112 -77 -170 -114 -144 -93 -240 -168 -240 -186 0 -14 51 -62 97 -91 21 -13
26 -10 72 35 l50 49 55 -44 c31 -24 77 -61 103 -81 53 -42 55 -55 21 -122
l-20 -39 49 -49 c55 -57 76 -70 96 -62 29 11 71 138 146 439 17 66 39 153 51
194 11 41 20 90 20 108 0 31 -4 35 -54 57 -79 35 -93 38 -99 24z m-71 -322
c-18 -55 -38 -102 -44 -104 -6 -2 -33 16 -58 40 l-47 44 69 46 c38 25 78 55
89 67 11 13 21 19 22 14 2 -4 -12 -53 -31 -107z"/>
<path d="M7972 7858 c-14 -14 -16 -38 -3 -38 5 0 14 7 21 15 17 20 0 41 -18
23z"/>
<path d="M4865 7783 c-397 -35 -787 -171 -1143 -397 -376 -240 -598 -467 -850
-871 -34 -55 -136 -256 -176 -349 -105 -238 -178 -623 -178 -936 0 -474 133
-893 420 -1318 107 -159 183 -253 333 -411 55 -57 135 -148 177 -200 78 -97
228 -251 337 -346 171 -149 606 -412 752 -455 48 -15 71 -26 66 -33 -26 -46
-238 -285 -363 -409 -131 -131 -223 -244 -266 -328 -35 -69 -39 -82 -39 -155
0 -71 4 -88 36 -155 58 -121 137 -185 259 -208 70 -14 137 -18 146 -9 4 4 12
7 18 7 6 0 5 -4 -3 -9 -12 -8 -12 -12 2 -25 8 -9 24 -16 34 -16 15 0 16 -2 3
-10 -13 -9 -13 -11 0 -20 11 -7 16 -5 18 10 4 26 22 26 22 0 0 -11 5 -20 11
-20 5 0 8 3 6 8 -6 9 19 33 26 25 3 -3 -3 -14 -14 -26 -24 -26 -24 -34 0 -42
10 -3 18 -13 17 -22 0 -9 4 -18 10 -20 7 -2 10 7 8 24 -4 27 -4 27 8 -4 15
-36 31 -56 28 -33 -7 45 9 53 30 15 10 -19 16 -22 27 -14 9 9 17 8 28 -1 11
-9 15 -9 15 -1 0 9 5 9 20 1 22 -12 40 -6 40 12 0 7 -6 6 -15 -2 -11 -9 -15
-9 -15 -1 0 17 15 20 100 23 63 3 75 6 78 21 2 10 1 25 -2 34 -6 14 -8 14 -26
-2 -40 -37 -98 8 -63 48 17 20 17 20 0 14 -10 -4 -23 -7 -28 -7 -5 0 -9 -10
-9 -22 0 -19 -2 -20 -10 -8 -14 22 -12 28 11 35 16 5 18 10 8 21 -12 15 -33 9
-24 -7 4 -5 0 -9 -9 -9 -8 0 -17 6 -19 13 -4 9 -6 9 -6 0 -1 -7 -9 -13 -18
-14 -11 0 -13 -3 -5 -6 6 -2 12 -9 12 -15 0 -6 -7 -8 -15 -4 -8 3 -15 1 -15
-4 0 -6 -7 -10 -16 -10 -13 0 -14 3 -5 14 9 11 9 15 -1 19 -8 4 -7 6 4 6 15 1
16 5 6 25 -6 14 -20 27 -32 29 -21 4 -21 4 1 6 12 0 29 -6 38 -15 14 -14 20
-15 40 -4 14 7 21 18 18 24 -4 7 -8 6 -11 -2 -2 -7 -10 -12 -19 -12 -45 0 -62
84 -23 125 13 14 19 25 14 25 -5 -1 -26 -23 -47 -50 -21 -28 -47 -50 -57 -50
-9 0 -23 -7 -30 -15 -7 -8 -20 -15 -28 -15 -9 0 4 13 29 29 24 15 90 77 146
136 60 62 108 105 116 102 7 -3 23 7 34 22 12 14 40 45 62 69 23 24 41 49 41
57 0 8 9 19 20 25 32 17 133 159 179 251 23 48 51 95 62 104 18 17 19 17 19
-3 0 -11 3 -22 8 -24 20 -9 71 -88 66 -102 -3 -9 -1 -16 5 -16 6 0 11 6 12 13
0 6 4 3 9 -8 13 -30 12 -38 -5 -31 -12 4 -13 2 -3 -13 9 -16 14 -17 25 -6 7 7
18 16 25 18 10 4 10 8 -2 16 -8 5 -11 13 -7 18 12 11 27 -19 21 -39 -6 -20 12
-25 19 -5 3 6 6 1 6 -11 1 -15 9 -26 21 -29 11 -3 20 -9 20 -13 0 -4 20 -10
45 -13 53 -5 66 -14 45 -28 -12 -9 -12 -10 3 -5 10 3 22 6 27 6 5 0 16 7 24
16 9 8 16 11 16 5 0 -6 7 -11 16 -11 9 0 22 -7 29 -17 10 -14 11 -11 7 15 -4
31 -25 48 -44 35 -7 -3 -8 -1 -4 5 11 17 23 15 48 -10 19 -19 21 -19 14 -2
-16 38 -18 54 -7 54 5 0 8 -7 5 -15 -4 -9 0 -15 10 -15 9 0 16 -6 16 -13 0 -7
8 -13 18 -13 9 -1 25 -4 35 -9 10 -4 17 -3 17 4 0 6 -4 11 -8 11 -5 0 -17 7
-28 16 -16 13 -16 15 -1 10 20 -6 22 5 5 22 -6 6 -8 15 -4 19 4 4 10 3 14 -3
12 -18 62 -24 62 -7 0 8 5 11 10 8 6 -3 10 -4 10 0 0 3 -15 14 -32 25 -18 11
-31 20 -28 21 3 0 17 3 32 5 38 6 110 49 165 98 66 58 177 145 316 250 65 48
183 149 264 224 153 143 375 387 396 434 8 20 19 28 37 27 37 0 119 -15 126
-22 3 -3 15 -45 25 -94 13 -59 26 -94 40 -105 40 -34 73 8 85 111 8 74 18 83
114 105 75 18 94 36 78 72 -11 23 -31 32 -114 49 -47 9 -73 44 -84 111 -14 85
-13 101 10 107 11 3 32 26 47 51 16 26 59 94 96 152 38 58 72 116 77 128 7 21
13 22 59 16 28 -3 54 -10 58 -14 4 -3 13 -54 20 -113 13 -109 23 -133 54 -133
36 0 49 38 49 142 0 110 0 111 83 123 49 8 77 32 77 66 0 17 -8 20 -92 35 -50
8 -64 28 -78 104 -6 36 -18 75 -26 87 -13 20 -12 28 11 75 76 163 135 328 135
377 0 19 6 16 55 -24 78 -63 95 -65 180 -22 132 68 251 183 313 300 23 45 27
63 27 142 0 106 -19 157 -84 228 -68 74 -186 112 -256 83 -50 -21 -51 -21 -21
14 26 32 37 64 63 185 16 74 11 257 -7 263 -5 2 -7 9 -4 16 3 8 -2 16 -11 20
-10 3 -15 12 -11 21 3 10 -1 15 -11 15 -9 0 -13 3 -10 7 8 7 -23 32 -41 33 -7
0 -20 7 -29 16 -19 19 -59 14 -55 -6 3 -11 0 -12 -8 -4 -7 8 -6 30 4 81 9 39
18 117 22 175 6 92 4 109 -14 151 -33 75 -106 106 -170 73 -15 -8 -47 -35 -71
-60 -24 -25 -48 -43 -53 -40 -4 3 -8 23 -8 44 0 21 -5 51 -11 67 -20 54 -209
289 -339 423 -72 74 -159 169 -193 210 -188 230 -384 416 -592 560 -151 105
-377 220 -565 288 -147 52 -399 112 -560 132 -78 9 -401 11 -495 3z m550 -138
c313 -48 594 -149 860 -307 300 -178 512 -365 706 -623 192 -255 353 -573 410
-811 l29 -123 -79 -98 c-44 -54 -129 -154 -191 -223 -61 -69 -134 -155 -163
-192 -29 -37 -55 -67 -58 -67 -3 -1 -9 56 -12 127 -16 304 -86 536 -250 825
-196 346 -559 650 -955 799 -318 119 -619 144 -982 82 -315 -54 -705 -265
-963 -521 -188 -187 -301 -354 -388 -578 -121 -309 -162 -600 -124 -892 29
-222 74 -371 173 -568 88 -177 160 -273 337 -451 224 -225 405 -347 665 -447
202 -78 361 -118 550 -138 142 -15 330 1 468 38 51 14 95 24 97 21 2 -2 -64
-68 -146 -147 l-150 -144 -32 31 c-37 36 -78 54 -97 42 -7 -5 -28 -6 -46 -3
-47 8 -89 -13 -124 -60 -43 -58 -40 -97 9 -161 22 -28 49 -59 60 -68 25 -21
27 -41 5 -59 -9 -8 -27 -31 -40 -51 -24 -37 -26 -38 -84 -38 -158 0 -389 52
-625 140 -428 160 -922 544 -1183 918 -121 173 -132 191 -211 349 -164 330
-228 567 -238 890 -10 319 26 580 119 858 176 526 543 987 1030 1294 315 198
646 321 973 360 50 6 101 13 115 15 55 10 440 -4 535 -19z m-55 -710 c148 -28
241 -56 384 -117 171 -73 290 -144 430 -255 299 -235 439 -449 574 -873 39
-124 52 -235 52 -457 l0 -182 -52 -64 c-210 -259 -318 -389 -548 -661 -144
-170 -326 -390 -412 -496 -140 -174 -155 -188 -237 -216 -89 -30 -292 -63
-446 -71 -276 -14 -654 99 -934 281 -101 65 -268 201 -348 282 -86 88 -207
247 -259 340 -97 174 -180 419 -205 609 -24 184 2 465 61 667 56 188 195 462
293 576 164 191 502 449 692 528 124 51 306 99 450 118 135 19 383 14 505 -9z
m2460 -947 c0 -55 -28 -208 -54 -298 -28 -95 -85 -243 -201 -520 -42 -102 -83
-203 -91 -225 -34 -94 -145 -292 -253 -452 -219 -326 -239 -355 -284 -411 -24
-31 -61 -82 -82 -112 -114 -165 -284 -330 -406 -393 -40 -22 -131 -61 -202
-89 -70 -27 -148 -65 -174 -85 -52 -40 -61 -38 -137 28 -22 19 -63 50 -91 69
-63 42 -95 70 -95 85 0 17 507 643 663 817 38 43 83 95 100 117 18 22 111 133
207 246 96 114 198 235 225 269 28 35 118 141 200 236 153 176 251 293 406
481 116 140 238 269 255 269 9 0 14 -11 14 -32z m65 -1054 c18 -45 19 -44 -1
-44 -24 0 -73 -38 -90 -71 -14 -27 -13 -33 6 -77 12 -26 40 -69 62 -96 l41
-48 -44 27 c-105 66 -125 90 -140 169 -10 55 6 99 51 140 55 50 94 50 115 0z
m253 9 c-4 -35 -36 -51 -117 -59 -52 -6 -61 -5 -61 9 0 13 7 15 30 11 25 -5
37 0 70 30 50 45 83 48 78 9z m-953 -743 c-31 -80 -118 -231 -170 -294 -22
-28 -79 -100 -127 -161 -47 -60 -106 -128 -130 -151 -106 -100 -336 -272 -458
-341 -52 -29 -234 -113 -247 -113 -3 0 6 15 20 34 15 18 37 58 51 89 l24 55
103 40 c290 114 355 150 467 261 159 157 300 337 418 532 36 60 67 109 69 109
2 0 -7 -27 -20 -60z m405 -430 c-6 -12 -21 -20 -35 -20 l-24 0 32 52 32 52 3
-32 c2 -17 -2 -40 -8 -52z m-1907 -343 c2 -7 29 -26 58 -41 30 -16 72 -44 93
-63 22 -18 47 -33 57 -33 28 0 61 -33 54 -53 -4 -9 -13 -17 -21 -17 -15 0 -18
-16 -15 -63 3 -31 -16 -65 -64 -115 -27 -28 -33 -31 -39 -17 -3 9 -2 13 4 10
6 -3 10 5 10 18 0 13 3 27 7 31 10 9 13 36 4 36 -8 0 -77 -72 -160 -167 -62
-72 -67 -93 -13 -53 15 11 37 21 49 23 12 2 32 12 44 23 l22 19 -13 -25 c-15
-29 -120 -159 -145 -180 -9 -8 -62 -68 -118 -135 -55 -66 -104 -122 -107 -125
-3 -3 -25 -30 -49 -60 -23 -30 -75 -89 -114 -131 -40 -42 -90 -98 -112 -124
-22 -26 -92 -107 -155 -179 -200 -229 -210 -241 -210 -253 0 -6 -13 -22 -28
-35 -15 -13 -31 -30 -34 -38 -10 -27 -164 -214 -211 -257 -26 -24 -55 -43 -64
-42 -13 0 -11 3 7 10 23 10 24 11 8 23 -25 18 -22 26 8 26 15 0 23 -4 19 -11
-4 -6 2 -5 14 3 12 7 21 18 21 25 0 7 7 13 15 13 9 0 15 10 15 26 0 14 4 23
10 19 6 -3 10 -3 10 2 0 4 15 24 33 43 18 19 43 55 55 80 39 79 73 135 82 138
6 2 10 12 10 23 0 10 4 19 9 19 5 0 14 13 21 29 6 16 18 32 26 35 8 3 14 13
14 21 0 9 4 14 8 11 12 -7 39 27 34 42 -2 7 0 12 5 10 15 -4 53 22 53 38 0 16
38 74 56 86 7 4 27 22 45 40 55 53 117 98 136 99 10 0 13 3 6 6 -20 8 -15 21
10 25 14 2 21 9 19 19 -1 11 8 19 30 24 23 5 27 9 16 12 -20 5 -22 12 -8 33 8
12 12 13 19 2 6 -11 10 -10 15 3 3 9 6 25 6 35 0 9 7 23 15 30 8 7 12 16 9 21
-3 5 0 9 6 9 6 0 8 6 4 13 -4 6 -3 9 1 4 14 -12 43 22 38 44 -3 10 -1 19 5 19
6 0 14 9 17 21 4 12 13 18 20 15 9 -3 12 0 9 9 -5 13 9 34 51 79 11 11 31 37
44 56 22 32 20 31 -21 -10 -25 -25 -77 -85 -117 -135 -40 -49 -114 -137 -164
-194 -51 -57 -125 -143 -165 -190 -41 -47 -88 -102 -105 -121 -207 -228 -398
-448 -427 -489 -13 -19 -23 -47 -22 -61 2 -32 -66 -109 -79 -88 -6 9 -10 8
-15 -5 -3 -9 -12 -17 -19 -17 -23 0 -29 -22 -10 -36 16 -12 16 -14 2 -19 -46
-18 -173 43 -216 103 -61 86 -45 213 41 334 37 51 72 90 295 321 78 81 204
216 279 300 76 83 181 199 234 257 104 113 165 182 340 385 199 231 353 395
371 395 9 0 19 -6 22 -13z m1433 -281 c-8 -41 -47 -76 -85 -76 -25 0 -24 3 29
59 30 33 57 58 59 56 2 -2 0 -20 -3 -39z m-1313 -140 c4 -10 1 -13 -8 -9 -8 3
-12 9 -9 14 7 12 11 11 17 -5z m-1222 -1810 c5 -6 9 -14 9 -20 0 -5 -7 -1 -15
10 -8 10 -14 28 -14 39 l1 20 5 -20 c3 -11 9 -24 14 -29z m54 4 c-3 -5 -12 -7
-20 -3 -21 7 -19 13 6 13 11 0 18 -4 14 -10z m-18 -42 c-3 -8 -6 -5 -6 6 -1
11 2 17 5 13 3 -3 4 -12 1 -19z m93 -23 c0 -16 -6 -25 -15 -25 -8 0 -15 6 -15
13 0 8 -4 7 -10 -3 -8 -13 -10 -12 -10 3 0 19 26 23 33 5 3 -7 6 -3 6 10 1 30
11 28 11 -3z m-60 -25 c0 -5 -4 -10 -10 -10 -5 0 -10 -7 -10 -15 0 -8 7 -15
15 -15 8 0 15 6 15 13 0 9 10 12 30 9 35 -5 38 -17 9 -32 -14 -8 -29 -8 -49
-1 -16 5 -31 6 -33 3 -2 -4 -2 -2 -1 5 2 7 -3 10 -12 6 -7 -3 -14 0 -14 6 0 6
6 11 13 11 8 0 7 4 -3 11 -12 8 -10 9 8 4 13 -4 22 -2 22 4 0 6 5 11 10 11 6
0 10 -4 10 -10z m-70 -14 c0 -3 -4 -8 -10 -11 -5 -3 -10 -1 -10 4 0 6 5 11 10
11 6 0 10 -2 10 -4z"/>
<path d="M4962 7514 c-53 -37 -68 -123 -31 -184 21 -34 147 -160 161 -160 16
0 157 143 172 175 58 121 -54 250 -130 150 -31 -41 -61 -45 -74 -11 -16 44
-60 57 -98 30z"/>
<path d="M4077 7143 c-14 -13 -6 -61 12 -84 16 -20 23 -22 38 -13 27 16 28 52
2 80 -23 24 -40 30 -52 17z"/>
<path d="M6032 7138 c-27 -27 -3 -88 36 -88 26 0 43 46 29 78 -11 24 -45 30
-65 10z"/>
<path d="M6197 7082 c-36 -39 -6 -95 43 -83 48 13 34 101 -15 101 -7 0 -19 -8
-28 -18z"/>
<path d="M3456 6701 c-27 -30 -17 -64 21 -75 41 -11 63 5 63 45 0 46 -53 65
-84 30z"/>
<path d="M6637 6679 c-28 -39 1 -83 50 -77 20 2 30 11 37 30 19 54 -55 93 -87
47z"/>
<path d="M3332 6509 c-22 -8 -29 -39 -16 -73 9 -24 61 -21 74 5 25 46 -9 86
-58 68z"/>
<path d="M6810 6474 c-22 -25 -1 -68 34 -72 34 -4 49 13 40 48 -9 41 -50 54
-74 24z"/>
<path d="M3115 6160 c-10 -17 4 -48 27 -56 29 -9 57 20 42 44 -13 20 -59 28
-69 12z"/>
<path d="M6962 6161 c-38 -24 20 -92 60 -70 20 11 24 49 6 67 -14 14 -47 15
-66 3z"/>
<path d="M2977 5310 c-31 -24 -35 -24 -77 -4 -47 24 -81 10 -98 -40 -19 -59
-2 -105 59 -160 28 -26 62 -49 74 -52 74 -18 194 134 166 209 -11 29 -57 67
-81 67 -10 0 -29 -9 -43 -20z"/>
<path d="M3200 4235 c-10 -12 -10 -19 -2 -27 9 -9 12 -7 13 8 0 16 2 15 10 -6
9 -23 11 -24 20 -7 22 38 -14 64 -41 32z"/>
<path d="M3508 3803 c-28 -7 -22 -40 9 -48 33 -8 60 19 42 42 -12 13 -20 14
-51 6z"/>
<path d="M4074 3426 c-15 -24 -15 -28 0 -52 13 -18 24 -24 43 -22 38 4 52 32
33 66 -21 37 -54 40 -76 8z"/>
<path d="M5052 6664 c-29 -25 -52 -51 -52 -57 1 -18 84 -132 97 -132 13 0 113
111 113 125 0 13 -48 67 -79 89 l-28 20 -51 -45z"/>
<path d="M4284 6550 c-76 -10 -183 -52 -300 -115 -187 -101 -344 -307 -403
-526 -26 -98 -44 -294 -36 -394 10 -118 51 -266 105 -380 89 -187 214 -343
561 -702 344 -355 424 -427 525 -475 253 -118 564 -90 799 72 201 139 747 761
918 1046 141 235 180 572 99 846 l-29 97 28 -20 c45 -32 34 -4 -23 59 -29 32
-92 108 -140 169 -152 194 -320 291 -554 323 -111 15 -205 3 -342 -42 -128
-43 -224 -108 -322 -220 l-75 -86 -65 68 c-106 111 -197 173 -331 225 -120 48
-299 71 -415 55z m301 -148 c161 -43 279 -124 415 -284 53 -62 102 -114 110
-116 10 -1 29 25 54 75 52 103 171 224 271 275 117 61 211 82 335 75 124 -7
199 -26 297 -74 97 -48 157 -96 220 -173 71 -87 118 -185 149 -305 24 -93 25
-113 21 -270 -4 -147 -8 -182 -31 -258 -67 -223 -221 -442 -652 -926 -235
-264 -390 -374 -582 -411 -90 -18 -220 -8 -317 25 -150 49 -204 92 -511 399
-379 380 -543 585 -634 796 -59 136 -74 224 -67 410 6 184 26 271 92 406 38
78 56 102 133 176 100 95 225 168 322 187 30 6 64 13 75 15 42 10 233 -4 300
-22z"/>
<path d="M5640 6299 c-124 -24 -281 -142 -335 -252 -32 -67 -58 -189 -50 -241
20 -135 48 -203 115 -279 55 -62 112 -94 201 -113 84 -18 254 -20 325 -4 69
16 161 71 224 135 34 34 63 55 77 55 22 0 22 -1 9 -45 -30 -98 -101 -177 -223
-246 -51 -29 -58 -55 -13 -46 48 10 188 68 243 101 91 55 130 145 131 301 1
160 -52 318 -144 428 -137 165 -356 246 -560 206z m196 -214 c102 -30 170
-123 181 -246 8 -89 -2 -122 -58 -183 -62 -68 -117 -96 -190 -96 -123 0 -242
118 -256 254 -13 124 68 237 197 277 39 12 72 10 126 -6z"/>
<path d="M5695 5958 c-79 -46 -99 -144 -43 -212 70 -85 188 -86 239 -2 74 121
-75 283 -196 214z"/>
<path d="M4197 6266 c-98 -40 -241 -163 -292 -250 -14 -24 -44 -92 -66 -152
-37 -98 -42 -119 -46 -224 -4 -104 -2 -126 25 -230 32 -124 64 -214 86 -243
14 -17 33 0 268 235 139 140 353 352 476 472 255 251 243 216 112 311 -83 59
-146 88 -215 99 -44 7 -51 4 -80 -35 -11 -14 -51 -52 -90 -86 -38 -33 -88 -78
-110 -100 -22 -22 -50 -45 -62 -51 -28 -15 -93 -16 -93 -1 0 26 85 170 131
222 58 65 50 71 -44 33z m52 -362 c53 -67 -7 -157 -84 -128 -19 8 -45 55 -45
84 0 29 47 70 81 70 18 0 35 -9 48 -26z m-279 -468 c0 -16 -18 -31 -27 -22 -8
8 5 36 17 36 5 0 10 -6 10 -14z"/>
<path d="M4884 5942 c-32 -27 -247 -239 -477 -470 l-418 -421 38 -54 c51 -73
255 -306 269 -306 6 -1 130 119 275 265 278 280 557 548 599 575 l24 16 -28
69 c-21 55 -29 93 -34 179 l-7 109 -40 7 c-60 11 -90 25 -118 54 l-24 27 -59
-50z m-224 -522 c0 -4 -7 -10 -15 -14 -10 -4 -15 1 -15 14 0 13 5 18 15 14 8
-4 15 -10 15 -14z"/>
<path d="M4813 5024 c-233 -233 -423 -428 -423 -434 0 -16 305 -320 322 -320
8 0 105 93 214 208 257 268 572 583 652 650 34 29 62 60 62 68 0 8 -19 23 -42
33 -24 10 -90 38 -147 61 -88 37 -113 53 -160 101 l-56 57 -422 -424z"/>
<path d="M5766 5144 c-17 -12 -132 -124 -256 -250 -124 -126 -323 -328 -443
-450 -119 -121 -217 -226 -217 -232 0 -22 50 -44 136 -59 160 -27 291 7 443
114 93 66 310 289 449 460 64 80 147 182 184 228 37 46 76 106 87 133 l20 51
-32 10 c-18 6 -101 12 -186 14 -145 3 -156 2 -185 -19z"/>
<path d="M3892 4438 c-33 -33 7 -100 47 -79 35 19 43 45 20 70 -22 23 -49 27
-67 9z"/>
<path d="M6171 3635 c-77 -53 -100 -76 -46 -46 36 20 127 91 115 90 -3 0 -34
-20 -69 -44z"/>
<path d="M5575 2850 c-3 -5 -2 -10 4 -10 5 0 13 5 16 10 3 6 2 10 -4 10 -5 0
-13 -4 -16 -10z"/>
<path d="M5515 2789 c-19 -18 -24 -29 -15 -28 8 0 25 13 38 30 30 37 16 36
-23 -2z"/>
<path d="M5327 2473 c-4 -3 -7 -11 -7 -17 0 -6 5 -5 12 2 6 6 9 14 7 17 -3 3
-9 2 -12 -2z"/>
<path d="M4307 1773 c-4 -3 -7 -11 -7 -17 0 -6 5 -5 12 2 6 6 9 14 7 17 -3 3
-9 2 -12 -2z"/>
<path d="M4668 1063 c7 -3 16 -2 19 1 4 3 -2 6 -13 5 -11 0 -14 -3 -6 -6z"/>
<path d="M8021 7719 c-108 -68 -452 -337 -490 -382 -11 -14 -6 -25 39 -82 28
-36 54 -65 56 -65 3 0 41 32 85 70 43 39 83 70 87 70 4 0 25 -17 46 -39 l38
-38 -27 -54 c-15 -29 -38 -82 -52 -117 l-24 -64 26 -34 c30 -40 79 -67 103
-60 16 6 81 150 97 216 6 24 9 25 88 26 105 0 152 23 202 96 66 98 69 206 7
288 -54 72 -186 210 -201 210 -9 0 -45 -19 -80 -41z m122 -214 c55 -53 61 -87
22 -133 -50 -59 -109 -50 -186 30 l-39 41 27 26 c35 33 105 81 119 81 6 0 31
-20 57 -45z"/>
<path d="M1960 7704 c-28 -26 -50 -51 -50 -56 0 -11 184 -209 388 -417 l133
-136 62 70 c34 38 101 109 148 156 48 47 94 100 104 118 l16 32 -43 40 c-63
57 -75 59 -116 13 -20 -22 -66 -72 -104 -111 l-70 -73 -105 108 c-58 59 -132
138 -165 175 -67 77 -120 127 -137 127 -7 0 -34 -21 -61 -46z"/>
<path d="M1795 7401 c-56 -14 -93 -41 -178 -128 -100 -103 -177 -205 -177
-233 0 -15 14 -27 53 -44 28 -13 117 -70 197 -126 228 -160 370 -245 389 -233
22 14 80 113 75 127 -2 6 -42 36 -88 66 l-83 55 22 27 c36 43 85 190 85 257 0
46 -6 66 -28 102 -40 63 -94 106 -154 124 -56 16 -67 17 -113 6z m96 -207 c30
-32 27 -73 -12 -150 -18 -35 -34 -64 -36 -64 -1 0 -21 13 -45 29 -24 15 -62
39 -85 52 -24 13 -43 28 -43 32 0 17 113 126 133 129 37 6 65 -3 88 -28z"/>
<path d="M8495 7192 c-43 -31 -421 -262 -510 -312 -16 -9 -31 -24 -33 -34 -4
-18 34 -89 103 -196 23 -36 63 -104 89 -152 26 -49 53 -88 60 -88 17 0 106 60
106 71 0 5 -34 71 -75 146 -41 76 -75 140 -75 143 0 3 22 18 48 34 43 26 48
27 57 11 35 -58 122 -179 131 -182 17 -5 114 77 114 96 0 10 -22 50 -50 89
-48 68 -61 102 -40 102 5 0 25 14 43 30 19 17 39 30 45 30 6 0 43 -44 82 -97
39 -54 79 -109 89 -123 l19 -25 45 24 c25 14 56 32 68 42 l23 17 -68 99 c-38
54 -100 146 -140 205 -39 60 -73 108 -76 107 -3 0 -27 -17 -55 -37z"/>
<path d="M7603 6785 c-43 -62 -68 -87 -104 -106 -22 -11 -39 -25 -39 -33 0 -7
18 -21 39 -31 50 -22 75 -50 91 -98 7 -21 19 -41 26 -44 20 -8 43 25 44 62 0
38 5 44 58 78 23 15 42 34 42 42 0 8 -18 26 -40 40 -23 14 -45 38 -50 53 -23
65 -40 74 -67 37z"/>
<path d="M2435 6716 c-8 -19 -15 -44 -15 -53 0 -33 -29 -63 -61 -63 -33 0 -69
-31 -69 -59 0 -26 37 -51 75 -51 44 0 54 -10 65 -70 11 -59 24 -80 50 -80 25
0 38 20 46 70 9 58 17 67 67 75 51 9 67 21 67 49 0 34 -14 47 -70 65 l-53 17
-16 65 c-14 58 -19 64 -44 67 -23 3 -30 -2 -42 -32z"/>
<path d="M1899 6517 c-9 -19 -5 -42 20 -117 18 -51 36 -113 41 -137 6 -24 19
-56 29 -71 18 -24 41 -100 85 -277 37 -149 68 -261 76 -270 4 -5 20 -43 34
-84 15 -41 40 -105 57 -143 22 -51 30 -84 30 -131 1 -100 -20 -159 -91 -252
-64 -83 -65 -93 -29 -214 17 -58 51 -168 76 -243 24 -76 43 -148 41 -160 -2
-18 -15 -25 -61 -37 -41 -11 -60 -12 -68 -4 -6 6 -23 59 -39 119 -71 277 -102
381 -118 404 -10 14 -59 45 -109 70 -50 25 -106 57 -125 71 -59 47 -84 110
-164 421 -41 161 -90 347 -108 413 -65 228 -96 352 -102 401 -10 74 -45 94
-89 49 -34 -33 -32 -73 11 -230 40 -147 72 -272 174 -669 75 -295 96 -350 163
-431 60 -71 100 -104 181 -150 44 -26 76 -51 84 -68 12 -25 191 -731 263
-1037 28 -120 68 -276 157 -610 39 -146 76 -282 174 -635 22 -82 55 -206 73
-275 45 -179 81 -241 182 -316 32 -24 78 -48 105 -54 42 -11 60 -10 133 6 11
2 1 -5 -22 -15 -38 -18 -64 -54 -49 -68 3 -4 6 0 6 8 0 8 7 1 15 -15 8 -15 15
-34 15 -40 0 -7 13 -24 28 -39 24 -23 34 -26 69 -21 25 3 44 1 48 -5 3 -6 0
-11 -8 -11 -8 0 -18 -7 -21 -16 -5 -14 -4 -15 9 -4 12 10 15 9 16 -6 0 -11 3
-14 5 -7 3 7 12 9 20 6 8 -3 14 -1 14 3 0 5 16 10 34 11 25 1 33 -2 30 -11 -3
-8 3 -16 13 -20 9 -4 14 -4 10 0 -4 4 -2 13 4 20 8 10 16 11 31 3 14 -8 24 -7
35 3 13 11 17 11 21 0 3 -9 9 -7 22 8 10 11 24 18 33 14 8 -3 18 -1 22 5 4 7
0 8 -11 4 -14 -5 -16 -3 -11 11 4 10 7 20 7 22 0 2 4 4 10 4 17 0 48 32 43 45
-2 7 1 16 8 21 8 5 10 3 4 -7 -6 -11 -5 -12 5 -2 8 7 14 28 14 48 1 19 5 35
10 35 5 0 6 37 3 85 -6 90 -46 204 -139 405 -71 151 -175 439 -453 1248 -52
150 -130 357 -173 460 -44 103 -85 204 -92 226 -7 21 -32 84 -57 140 -25 55
-56 132 -70 170 -23 63 -83 201 -101 235 -5 8 -20 15 -35 15 -21 1 -27 -3 -28
-19 0 -11 -11 10 -25 46 l-25 67 33 43 c45 60 87 157 99 230 15 95 -4 192 -87
450 -42 129 -87 270 -101 314 -13 44 -58 181 -100 305 -60 180 -81 230 -104
253 -39 36 -94 38 -110 4z m438 -2225 c7 -4 19 -25 28 -46 12 -29 13 -41 4
-52 -14 -17 -55 -19 -65 -3 -11 18 -24 -11 -24 -55 0 -35 2 -38 23 -32 12 3
40 9 63 12 47 7 47 9 89 -141 28 -97 118 -387 195 -630 27 -82 114 -346 195
-585 161 -475 172 -523 140 -607 -10 -25 -33 -63 -53 -84 -20 -23 -32 -45 -28
-54 6 -15 -5 -19 -54 -16 -27 2 -100 73 -125 122 -8 15 -26 74 -40 131 -14 56
-43 166 -65 243 -22 77 -63 223 -90 325 -28 102 -66 244 -85 315 -68 247 -227
860 -240 925 -8 36 -21 91 -30 124 -10 37 -13 62 -7 68 7 7 91 33 152 47 3 0
10 -3 17 -7z m850 -2204 c-3 -8 -6 -5 -6 6 -1 11 2 17 5 13 3 -3 4 -12 1 -19z
m-237 -68 c0 -5 -7 -10 -15 -10 -8 0 -15 5 -15 10 0 6 7 10 15 10 8 0 15 -4
15 -10z m325 -380 c3 -5 1 -10 -4 -10 -6 0 -11 5 -11 10 0 6 2 10 4 10 3 0 8
-4 11 -10z"/>
<path d="M2828 2053 c7 -3 16 -2 19 1 4 3 -2 6 -13 5 -11 0 -14 -3 -6 -6z"/>
<path d="M1725 6478 c-29 -16 -35 -28 -35 -74 0 -67 262 -906 311 -995 20 -36
30 -45 57 -47 42 -4 82 21 82 51 0 12 -9 41 -20 65 -11 24 -52 148 -91 275
-39 128 -81 263 -95 300 -13 37 -35 114 -49 170 -35 140 -65 229 -83 250 -17
19 -48 22 -77 5z"/>
<path d="M1524 6406 c-44 -19 -74 -62 -74 -105 0 -51 34 -186 63 -251 14 -30
32 -89 42 -130 9 -41 28 -109 41 -150 13 -41 33 -115 44 -165 27 -120 69 -263
87 -298 13 -26 17 -28 56 -22 75 12 115 25 121 40 7 19 -21 126 -83 315 -78
241 -189 614 -202 683 -19 102 -30 111 -95 83z"/>
<path d="M8460 6129 c-25 -27 -46 -53 -48 -57 -3 -10 42 -57 75 -79 26 -17 44
-9 87 36 l29 30 -39 57 c-21 32 -43 59 -49 60 -5 1 -30 -20 -55 -47z"/>
<path d="M8300 5902 c-17 -28 -46 -57 -70 -71 -22 -12 -41 -26 -41 -32 -1 -5
-2 -14 -3 -20 -1 -6 24 -23 54 -38 48 -24 56 -33 72 -76 9 -26 22 -53 27 -58
16 -16 41 1 41 28 0 14 6 41 14 60 12 27 23 36 58 46 84 24 86 55 6 95 -39 20
-54 34 -69 70 -27 59 -50 59 -89 -4z"/>
<path d="M8491 5349 c-13 -17 -43 -40 -67 -52 -43 -20 -59 -40 -48 -58 3 -5
12 -9 20 -9 34 0 73 -30 84 -67 19 -59 28 -60 49 -10 17 39 26 47 59 57 22 5
45 17 52 25 15 18 6 45 -14 45 -8 0 -34 23 -59 50 -25 28 -47 50 -49 49 -1 0
-14 -14 -27 -30z"/>
<path d="M1553 4682 c-18 -15 -46 -37 -63 -50 -37 -29 -38 -39 -2 -54 15 -6
43 -27 64 -46 l36 -34 18 26 c9 15 37 41 61 57 23 16 43 34 43 39 0 8 -92 78
-113 85 -7 3 -26 -8 -44 -23z"/>
<path d="M8340 3934 c-25 -20 -49 -40 -54 -45 -12 -11 46 -74 87 -95 26 -14
29 -13 79 35 l52 50 -47 46 c-26 25 -53 45 -60 44 -6 0 -32 -16 -57 -35z"/>
<path d="M1700 3925 c-19 -19 -51 -42 -72 -51 -21 -9 -38 -23 -38 -30 0 -7 21
-25 48 -40 55 -32 72 -50 72 -79 0 -12 6 -30 14 -41 13 -18 15 -16 27 31 9 38
23 60 58 93 l46 42 -30 29 c-17 15 -40 40 -52 55 -13 14 -26 26 -30 25 -5 -1
-24 -16 -43 -34z"/>
<path d="M8016 3565 c-32 -30 -33 -65 -3 -92 37 -34 65 -38 93 -12 32 30 31
73 -1 104 -31 32 -55 32 -89 0z"/>
<path d="M7732 2666 c-23 -22 -42 -47 -42 -53 0 -18 70 -93 86 -93 17 0 128
88 131 104 2 11 -108 87 -123 85 -5 -1 -28 -20 -52 -43z"/>
<path d="M3556 2626 c-14 -24 -37 -51 -51 -60 l-25 -17 30 -29 c16 -16 44 -52
62 -81 l32 -52 17 41 c13 30 29 47 61 63 71 36 71 48 3 78 -32 14 -49 30 -65
60 -11 23 -24 41 -29 41 -5 0 -21 -20 -35 -44z"/>
<path d="M5691 1764 c0 -11 3 -14 6 -6 3 7 2 16 -1 19 -3 4 -6 -2 -5 -13z"/>
<path d="M5491 1760 c0 -8 4 -22 9 -30 12 -18 12 -2 0 25 -6 13 -9 15 -9 5z"/>
<path d="M2910 1756 c0 -2 7 -9 15 -16 9 -7 15 -8 15 -2 0 5 -7 12 -15 16 -8
3 -15 4 -15 2z"/>
<path d="M4980 1414 c0 -14 4 -23 9 -20 5 3 7 15 4 26 -7 28 -13 25 -13 -6z"/>
<path d="M4910 1412 c-32 -5 -41 -20 -34 -57 6 -29 6 -29 -12 -13 -14 12 -24
14 -34 7 -12 -7 -12 -11 -2 -17 7 -5 10 -16 6 -25 -6 -17 -71 -60 -91 -60 -17
0 -5 -17 13 -17 8 0 14 5 14 10 0 16 27 12 34 -5 7 -18 44 -14 57 6 7 12 9 11
9 -2 0 -9 7 -20 16 -23 9 -4 14 -13 10 -21 -6 -17 2 -19 23 -6 13 8 12 12 -5
28 -11 10 -15 15 -10 11 16 -12 24 -9 29 10 3 10 5 6 6 -10 1 -21 6 -28 21
-28 11 0 20 5 20 11 0 6 -7 9 -15 5 -11 -4 -15 1 -15 19 0 14 -6 25 -12 25 -7
0 -2 7 10 16 12 8 22 22 22 30 0 8 5 12 10 9 6 -3 10 1 10 11 0 9 8 23 17 30
16 11 16 13 -10 19 -17 5 -27 14 -27 26 0 10 -4 19 -10 19 -5 0 -10 -6 -10
-12 0 -8 -3 -9 -8 -3 -4 6 -18 9 -32 7z m0 -29 c0 -5 -5 -15 -10 -23 -8 -12
-10 -11 -10 8 0 12 5 22 10 22 6 0 10 -3 10 -7z"/>
<path d="M4841 1384 c0 -11 3 -14 6 -6 3 7 2 16 -1 19 -3 4 -6 -2 -5 -13z"/>
<path d="M5056 1354 c-4 -10 -12 -14 -24 -9 -14 5 -15 4 -4 -6 10 -11 15 -10
29 4 9 9 14 19 11 22 -3 3 -8 -2 -12 -11z"/>
<path d="M4795 1320 c-3 -5 -1 -10 4 -10 6 0 11 5 11 10 0 6 -2 10 -4 10 -3 0
-8 -4 -11 -10z"/>
<path d="M4996 1305 c-3 -9 0 -15 9 -15 8 0 15 7 15 15 0 8 -4 15 -9 15 -5 0
-11 -7 -15 -15z"/>
<path d="M4690 1303 c0 -5 5 -15 10 -23 8 -12 10 -11 10 8 0 12 -4 22 -10 22
-5 0 -10 -3 -10 -7z"/>
<path d="M5045 1300 c3 -5 8 -10 11 -10 2 0 4 5 4 10 0 6 -5 10 -11 10 -5 0
-7 -4 -4 -10z"/>
<path d="M5025 1280 c-3 -5 -1 -10 4 -10 6 0 11 5 11 10 0 6 -2 10 -4 10 -3 0
-8 -4 -11 -10z"/>
<path d="M4670 1260 c0 -5 5 -10 10 -10 6 0 10 5 10 10 0 6 -4 10 -10 10 -5 0
-10 -4 -10 -10z"/>
<path d="M5050 1260 c0 -5 5 -10 10 -10 6 0 10 5 10 10 0 6 -4 10 -10 10 -5 0
-10 -4 -10 -10z"/>
<path d="M4985 1240 c-3 -5 1 -10 10 -10 9 0 13 5 10 10 -3 6 -8 10 -10 10 -2
0 -7 -4 -10 -10z"/>
<path d="M4843 1213 c-7 -2 -13 -12 -13 -20 0 -12 3 -13 14 -4 12 10 13 8 9
-8 -3 -12 0 -28 7 -36 14 -17 60 -21 60 -5 0 6 -9 10 -19 10 -23 0 -37 30 -19
42 10 6 10 10 -2 18 -16 11 -19 11 -37 3z"/>
<path d="M4806 1183 c6 -27 29 -53 47 -53 4 0 5 5 2 10 -3 6 -13 10 -21 10 -9
0 -14 11 -14 30 0 17 -5 30 -10 30 -6 0 -8 -11 -4 -27z"/>
<path d="M4780 1141 c0 -6 5 -13 10 -16 6 -3 10 1 10 9 0 9 -4 16 -10 16 -5 0
-10 -4 -10 -9z"/>
</g>
</svg>
